<svg width="497" height="535" viewBox="0 0 497 535" fill="none" xmlns="http://www.w3.org/2000/svg">
<path opacity="0.8" d="M594.211 361.321L499.543 337.385M594.211 361.321L615.695 322.067M594.211 361.321L572.526 400.941M499.543 337.385L423.721 349.553M499.543 337.385L517.6 301.216M499.543 337.385L481.247 374.029M423.721 349.553L408.077 383.093M423.721 349.553L439.112 316.559M423.721 349.553L359.784 379.952M408.077 383.093L396.075 409.251M408.077 383.093L481.247 374.029M408.077 383.093L352.379 407.776M396.075 409.251L393.304 409.183M396.075 409.251L463.119 410.874M551.08 440.616L463.119 410.874M551.08 440.616L572.526 400.941M551.08 440.616L479.655 441.066M463.119 410.874L481.247 374.029M393.304 409.183L352.531 408.197M393.304 409.183L479.655 441.066M352.531 408.197L352.379 407.776M352.531 408.197L364.829 442.124M316.656 309.221L229.059 282.69M316.656 309.221L313.04 299.246M316.656 309.221L319.344 316.638M229.059 282.69L165.419 299.159M229.059 282.69L247.014 324.547M229.059 282.69L210.891 240.338M165.419 299.159L114.905 335.525M165.419 299.159L183.702 336.941M165.419 299.159L147.05 261.2M114.905 335.525L73.8693 379.826M114.905 335.525L133.013 369.382M114.905 335.525L96.8063 301.685M73.8693 379.826L35.3493 448.237M73.8693 379.826L91.5612 410.124M73.8693 379.826L56.2529 349.661M35.3493 448.237L52.7194 475.544M35.3493 448.237L18.1022 421.123M370.958 68.1263L366.099 76.3065M370.958 68.1263L385.881 43.0053M370.958 68.1263L445.108 31.1121M445.108 31.1121L478.809 36.1259M445.108 31.1121L410.191 25.6126M445.108 31.1121L562.986 25.8385M478.809 36.1259L493.966 75.9054M478.809 36.1259L388.755 79.2654M478.809 36.1259L597.992 31.2068M493.966 75.9054L508.96 115.258M493.966 75.9054L404.975 114.242M493.966 75.9054L610.453 75.6512M508.96 115.258L523.795 154.195M508.96 115.258L421.125 149.068M508.96 115.258L622.676 119.255M523.795 154.195L538.473 192.719M523.795 154.195L437.206 183.746M523.795 154.195L634.672 162.042M538.473 192.719L552.998 230.839M538.473 192.719L453.22 218.278M538.473 192.719L646.444 204.033M552.998 230.839L535.426 265.516M552.998 230.839L469.164 252.662M552.998 230.839L658 245.252M535.426 265.516L517.6 301.216M535.426 265.516L454.255 284.095M535.426 265.516L636.981 283.174M517.6 301.216L439.112 316.559M517.6 301.216L615.695 322.067M481.247 374.029L572.526 400.941M352.379 407.776L350.168 401.678M38.7277 320.072L1 394.601L18.1022 421.123M38.7277 320.072L78.7259 268.371M38.7277 320.072L53.9054 292.694M38.7277 320.072L56.2529 349.661M78.7259 268.371L128.588 223.629M78.7259 268.371L96.8063 301.685M78.7259 268.371L95.7678 237.515M128.588 223.629L147.883 188.944M128.588 223.629L192.477 198.124M128.588 223.629L147.05 261.2M147.883 188.944L214.716 159.012M147.883 188.944L95.7678 237.515M147.883 188.944L166.842 154.866M214.716 159.012L308.946 172.523M214.716 159.012L192.477 198.124M214.716 159.012L236.637 120.459M308.946 172.523L282.757 216.61M308.946 172.523L322.343 149.969M307.534 284.057L365.804 230.821M307.534 284.057L313.04 299.246M307.534 284.057L299.92 263.051M365.804 230.821L437.206 183.746M365.804 230.821L349.304 200.125M365.804 230.821L382.314 261.533M437.206 183.746L421.125 149.068M437.206 183.746L453.22 218.278M634.672 162.042L622.676 119.255M634.672 162.042L646.444 204.033M295.881 252.123L349.304 200.125M295.881 252.123L299.92 263.051M295.881 252.123L284.006 219.989M349.304 200.125L421.125 149.068M349.304 200.125L332.812 169.445M421.125 149.068L404.975 114.242M622.676 119.255L610.453 75.6512M192.477 198.124L282.757 216.61M192.477 198.124L210.891 240.338M282.757 216.61L284.006 219.989M284.006 219.989L332.812 169.445M332.812 169.445L404.975 114.242M332.812 169.445L322.343 149.969M404.975 114.242L388.755 79.2654M610.453 75.6512L597.992 31.2068M335.098 360.103L340.296 374.443M335.098 360.103L333.046 354.438M335.098 360.103L386.042 320.627M386.042 320.627L454.255 284.095M386.042 320.627L398.831 292.262M386.042 320.627L373.039 350.005M454.255 284.095L469.164 252.662M454.255 284.095L439.112 316.559M636.981 283.174L658 245.252M636.981 283.174L615.695 322.067M332.841 441.381L281.223 474.961M332.841 441.381L348.299 435.051M332.841 441.381L301.312 440.517M281.223 474.961L233.953 534L205.72 533.329M281.223 474.961L251.477 474.173M205.72 533.329L176.968 532.646M205.72 533.329L251.477 474.173M176.968 532.646L221.177 473.369M176.968 532.646L147.683 531.951M341.059 118.462L334.859 128.897M341.059 118.462L360.502 85.7267M341.059 118.462L388.755 79.2654M388.755 79.2654L366.099 76.3065M597.992 31.2068L562.986 25.8385M313.549 420.181L269.168 439.637M313.549 420.181L331.361 427.803M313.549 420.181L299.339 414.099M269.168 439.637L236.389 438.74M269.168 439.637L301.312 440.517M269.168 439.637L221.177 473.369M236.389 438.74L202.958 437.825M236.389 438.74L291.029 413.848M236.389 438.74L190.306 472.55M202.958 437.825L169.263 437.161M202.958 437.825L255.701 412.774M202.958 437.825L158.848 471.716M169.263 437.161L151.132 403.263M169.263 437.161L220.012 411.977M169.263 437.161L127.177 471.111M151.132 403.263L133.013 369.382M151.132 403.263L201.899 374.547M151.132 403.263L109.331 440.551M133.013 369.382L183.702 336.941M133.013 369.382L91.5612 410.124M96.8063 301.685L147.05 261.2M96.8063 301.685L56.2529 349.661M646.444 204.033L658 245.252M479.655 441.066L403.962 441.544L364.829 442.124M364.829 442.124L348.299 435.051M348.299 435.051L331.361 427.803M331.361 427.803L301.312 440.517M299.339 414.099L297.485 413.306M299.339 414.099L291.029 413.848M297.485 413.306L291.029 413.848M297.485 413.306L289.622 409.941M289.622 409.941L282.305 406.81L264.763 365.918M289.622 409.941L255.701 412.774M264.763 365.918L247.014 324.547M264.763 365.918L201.899 374.547M264.763 365.918L349.099 398.73M247.014 324.547L183.702 336.941M247.014 324.547L333.046 354.438M210.891 240.338L147.05 261.2M210.891 240.338L299.92 263.051M236.637 120.459L258.247 82.453M236.637 120.459L166.842 154.866M236.637 120.459L334.859 128.897M258.247 82.453L279.553 44.9826M258.247 82.453L360.502 85.7267M258.247 82.453L185.473 121.377M279.553 44.9826L300.102 8.27627M279.553 44.9826L203.784 88.461M279.553 44.9826L385.881 43.0053M300.102 8.27627L410.487 1M300.102 8.27627L221.371 56.3179M410.487 1L526.561 19.9054M410.487 1L397.261 23.576M526.561 19.9054L410.191 25.6126M526.561 19.9054L562.986 25.8385M340.296 374.443L373.039 350.005M340.296 374.443L345.898 389.898M373.039 350.005L439.112 316.559M373.039 350.005L359.784 379.952M220.012 411.977L201.899 374.547M220.012 411.977L255.701 412.774M201.899 374.547L183.702 336.941M255.701 412.774L291.029 413.848M158.848 471.716L117.852 531.242M158.848 471.716L190.306 472.55M158.848 471.716L127.177 471.111M117.852 531.242L87.8328 530.742M117.852 531.242L147.683 531.951M87.8328 530.742L70.2139 503.045M87.8328 530.742L127.177 471.111M70.2139 503.045L52.7194 475.544M70.2139 503.045L109.331 440.551M52.7194 475.544L91.5612 410.124M18.1022 421.123L56.2529 349.661M95.7678 237.515L112.465 207.283M95.7678 237.515L53.9054 292.694M112.465 207.283L128.826 177.658M112.465 207.283L68.7369 265.939M112.465 207.283L166.842 154.866M128.826 177.658L144.861 148.62M128.826 177.658L83.2351 239.787M128.826 177.658L185.473 121.377M144.861 148.62L160.207 120.344M144.861 148.62L203.784 88.461M144.861 148.62L97.4115 214.216M203.784 88.461L221.371 56.3179M203.784 88.461L185.473 121.377M221.371 56.3179L160.207 120.344M301.312 440.517L251.477 474.173M251.477 474.173L221.177 473.369M221.177 473.369L190.306 472.55M147.683 531.951L190.306 472.55M338.192 340.855L321.648 313.484M338.192 340.855L332.707 353.506M338.192 340.855L398.831 292.262M321.648 313.484L319.344 316.638M321.648 313.484L382.314 261.533M321.648 313.484L313.04 299.246M53.9054 292.694L68.7369 265.939M166.842 154.866L185.473 121.377M334.859 128.897L322.343 149.969M68.7369 265.939L83.2351 239.787M360.502 85.7267L366.099 76.3065M83.2351 239.787L97.4115 214.216M385.881 43.0053L389.844 36.2389M97.4115 214.216L110.933 189.373L160.207 120.344M453.22 218.278L469.164 252.662M453.22 218.278L382.314 261.533M469.164 252.662L398.831 292.262M359.784 379.952L345.898 389.898M359.784 379.952L350.168 401.678M345.898 389.898L349.099 398.73M389.844 36.2389L410.191 25.6126M389.844 36.2389L397.261 23.576M410.191 25.6126L397.261 23.576M382.314 261.533L398.831 292.262M350.168 401.678L349.099 398.73M332.707 353.506L333.046 354.438M332.707 353.506L319.344 316.638M127.177 471.111L109.331 440.551M109.331 440.551L91.5612 410.124" stroke="url(#paint0_linear_1421_8564)" stroke-width="0.5" stroke-linecap="round" stroke-linejoin="round"/>
<defs>
<linearGradient id="paint0_linear_1421_8564" x1="329.5" y1="1" x2="315.322" y2="479.372" gradientUnits="userSpaceOnUse">
<stop stop-color="#22C8FF"/>
<stop offset="1" stop-color="#22C8FF" stop-opacity="0"/>
</linearGradient>
</defs>
</svg>
