<svg width="54" height="77" viewBox="0 0 54 77" fill="none" xmlns="http://www.w3.org/2000/svg">
<path d="M26.8384 65.3429L15.4187 75.4467V41.4958H38.5893V75.4467L27.1697 65.3429L27.004 65.1964L26.8384 65.3429Z" fill="#3D2C9E" stroke="#8676E1" stroke-width="0.5"/>
<path d="M53.75 26.9954C53.75 41.7741 41.7671 53.75 26.9999 53.75C12.2237 53.75 0.25 41.7742 0.25 26.9954C0.25 12.2259 12.2238 0.25 26.9999 0.25C41.7671 0.25 53.75 12.2259 53.75 26.9954Z" fill="#211E35" stroke="#8676E1" stroke-width="0.5"/>
<path d="M27 45.75C16.6615 45.75 8.25 37.3365 8.25 26.9952C8.25 16.6592 16.6613 8.25 27 8.25C37.3387 8.25 45.75 16.6592 45.75 26.9952C45.75 37.3365 37.3385 45.75 27 45.75Z" fill="#211E35" stroke="#8676E1" stroke-width="0.5"/>
<path d="M27 16.651L29.6787 23.0914L29.7373 23.2324L29.8896 23.2446L36.8425 23.802L31.5451 28.3398L31.4291 28.4391L31.4646 28.5876L33.083 35.3725L27.1303 31.7366L27 31.6571L26.8697 31.7366L20.917 35.3725L22.5354 28.5876L22.5709 28.4391L22.4549 28.3398L17.1575 23.802L24.1104 23.2446L24.2627 23.2324L24.3213 23.0914L27 16.651Z" fill="#3D2C9E" stroke="#8676E1" stroke-width="0.5"/>
</svg>
