<svg width="80" height="80" viewBox="0 0 80 80" fill="none" xmlns="http://www.w3.org/2000/svg">
<path d="M46.4183 58.4869L35.7155 76.5H14.2845L3.58171 58.4869L14.2843 40.5H35.7157L46.4183 58.4869Z" fill="#3D2C9E" stroke="#8676E1"/>
<path d="M76.75 20.9999C76.75 31.345 68.3513 39.75 58.0156 39.75C47.6482 39.75 39.25 31.3446 39.25 20.9999C39.25 10.6243 47.648 2.25 58.0156 2.25C68.3516 2.25 76.75 10.6241 76.75 20.9999Z" fill="#3D2C9E" stroke="#8676E1" stroke-width="0.5"/>
<path d="M68.707 20.9937L63.3597 29.75H52.6403L47.293 20.9937L52.6402 12.25H63.3598L68.707 20.9937Z" fill="#211E35" stroke="#8676E1" stroke-width="0.5"/>
<path d="M58 18V24" stroke="#8676E1"/>
<path d="M21.0249 55H22.2409V61H21.1135L17.2079 57.0029V61H16V55H17.1274L21.0249 58.9971V55Z" fill="#8676E1"/>
<path d="M28.7202 55V56.2312H24.7261V57.6098H28.3095V58.8324H24.7261V61H23.5101V55H28.7202Z" fill="#8676E1"/>
<path d="M35 55V56.2486H32.7211V61H31.481V56.2486H29.194V55H35Z" fill="#8676E1"/>
<path d="M33 21H25.5V33M25.5 33L28 30.5M25.5 33L23 30.5" stroke="#8676E1"/>
<path d="M51 58H58.5V46M58.5 46L56 48.5M58.5 46L61 48.5" stroke="#8676E1"/>
</svg>
