<svg width="80" height="80" viewBox="0 0 80 80" fill="none" xmlns="http://www.w3.org/2000/svg">
<path d="M68 71.5C68 73.9853 65.995 76 63.5215 76H26.4785C24.005 76 22 73.9853 22 71.5C22 69.0147 24.005 67 26.4785 67H63.5215C65.995 67 68 69.0147 68 71.5Z" fill="#3D2C9E" stroke="#8676E1" stroke-width="0.5"/>
<path d="M75 62.5C75 64.9853 72.995 67 70.5215 67H33.4785C31.005 67 29 64.9853 29 62.5C29 60.0147 31.005 58 33.4785 58H70.5214C72.9948 57.9998 75 60.0147 75 62.5Z" fill="#211E35" stroke="#8676E1" stroke-width="0.5"/>
<path d="M68 53.5C68 55.9853 65.995 58 63.5215 58H26.4785C24.005 58 22 55.9853 22 53.5C22 51.0147 24.005 49 26.4785 49H63.5215C65.995 49 68 51.0147 68 53.5Z" fill="#3D2C9E" stroke="#8676E1" stroke-width="0.5"/>
<path d="M75 44.5C75 46.9853 72.995 49 70.5215 49H33.4785C31.005 49 29 46.9853 29 44.5C29 42.0147 31.005 40 33.4785 40H70.5214C72.9948 40 75 42.0147 75 44.5Z" fill="#211E35" stroke="#8676E1" stroke-width="0.5"/>
<path d="M68 35.5C68 37.9853 65.995 40 63.5215 40H26.4785C24.005 40 22 37.9853 22 35.5C22 33.0147 24.005 31 26.4785 31H63.5215C65.995 31 68 33.0148 68 35.5Z" fill="#3D2C9E" stroke="#8676E1" stroke-width="0.5"/>
<path d="M75 26.5C75 28.9853 72.995 31 70.5215 31H33.4785C31.005 31 29 28.9853 29 26.5C29 24.0147 31.005 22 33.4785 22H70.5214C72.9948 21.9998 75 24.0147 75 26.5Z" fill="#211E35" stroke="#8676E1" stroke-width="0.5"/>
<path d="M68 17.5C68 19.9853 65.995 22 63.5215 22H26.4785C24.005 22 22 19.9853 22 17.5C22 15.0147 24.005 13 26.4785 13H63.5215C65.995 13 68 15.0147 68 17.5Z" fill="#3D2C9E" stroke="#8676E1" stroke-width="0.5"/>
<path d="M75 8.5C75 10.9853 72.995 13 70.5215 13H33.4785C31.005 13 29 10.9853 29 8.5C29 6.01468 31.005 4 33.4785 4H70.5214C72.9948 4 75 6.01468 75 8.5Z" fill="#211E35" stroke="#8676E1" stroke-width="0.5"/>
<path d="M25 76C35.4934 76 44 67.4934 44 57C44 46.5066 35.4934 38 25 38C14.5066 38 6 46.5066 6 57C6 67.4934 14.5066 76 25 76Z" fill="#211E35" stroke="#8676E1" stroke-width="0.5"/>
<path d="M37 56.9999C37 63.6208 31.6251 69 25.0098 69C18.3749 69 13 63.6206 13 56.9999C13 50.3595 18.3749 45 25.0098 45C31.6251 45 37 50.3595 37 56.9999Z" fill="#3D2C9E" stroke="#8676E1" stroke-width="0.5"/>
<path d="M31.7106 56.9958L28.3563 62.75H21.6437L18.2894 56.9958L21.6436 51.25H28.3564L31.7106 56.9958Z" fill="#211E35" stroke="#8676E1" stroke-width="0.5"/>
<path d="M25 55L25 59" stroke="#8676E1"/>
</svg>
