<svg width="664" height="903" viewBox="0 0 664 903" fill="none" xmlns="http://www.w3.org/2000/svg">
<path opacity="0.6" d="M505.507 175.028L524.156 212.159M505.507 175.028L478.37 181.64M505.507 175.028L531.453 168.783M505.507 175.028L472.209 173.169M524.156 212.159L542.902 249.279M524.156 212.159L497.387 219.125M524.156 212.159L549.992 205.49M542.902 249.279L527.339 283.477M542.902 249.279L516.496 256.603M542.902 249.279L568.629 242.177M527.339 283.477L512.065 317.042M527.339 283.477L551.551 276.41M527.339 283.477L502.816 290.638M512.065 317.042L489.408 323.991M512.065 317.042L534.765 310.059M489.408 323.991L502.816 290.638M489.408 323.991L462.215 334.334M531.453 168.783L549.992 205.49M531.453 168.783L531.189 168.77L496.716 167.29M531.453 168.783L556.353 162.808M549.992 205.49L568.629 242.177M549.992 205.49L574.923 199.062M568.629 242.177L551.551 276.41M568.629 242.177L593.588 235.281M551.551 276.41L534.765 310.059M551.551 276.41L575.299 269.47M534.765 310.059L557.297 303.118M556.353 162.808L574.923 199.062M556.353 162.808L556.28 162.806L520.333 161.638M556.353 162.808L573.621 159.782M574.923 199.062L593.588 235.281M574.923 199.062L592.128 195.529M593.588 235.281L575.299 269.47M593.588 235.281L610.725 231.229M575.299 269.47L557.297 303.118M575.299 269.47L591.504 265.22M557.297 303.118L572.558 298.729M573.621 159.782L592.128 195.529M573.621 159.782L590.012 156.926M592.128 195.529L610.725 231.229M592.128 195.529L608.541 192.158M610.725 231.229L591.504 265.22M610.725 231.229L627.153 227.325M591.504 265.22L572.558 298.729M591.504 265.22L607.266 261.07M572.558 298.729L587.634 294.381M590.012 156.926L608.541 192.158M590.012 156.926L605.496 154.178M608.541 192.158L627.153 227.325M608.541 192.158L624.151 188.877M627.153 227.325L607.266 261.07M627.153 227.325L642.876 223.481M607.266 261.07L587.634 294.381M607.266 261.07L622.606 256.952M587.634 294.381L602.57 290.034M605.496 154.178L624.151 188.877M605.496 154.178L613.914 152.307M605.496 154.178L568.076 153.62L567.937 153.617L567.239 153.607M624.151 188.877L642.876 223.481M624.151 188.877L632.578 186.448L638.974 184.267L644.795 182.07M642.876 223.481L622.606 256.952M642.876 223.481L651.296 220.47M622.606 256.952L602.57 290.034M622.606 256.952L630.847 253.611M602.57 290.034L610.606 286.41M45.8561 775.882L9.4736 790.296M45.8561 775.882L48.1646 753.9M45.8561 775.882L44.9991 796.086M9.4736 790.296L-27.3436 804.882M9.4736 790.296L11.443 766.46M9.4736 790.296L9.79744 812.953M-27.3436 804.882L-61.336 785.143M-27.3436 804.882L-25.8027 830.009M-27.3436 804.882L-25.7676 779.188M-61.336 785.143L-95.1801 765.601M-61.336 785.143L-60.355 811.355M-61.336 785.143L-59.9808 759.027M-95.1801 765.601L-95.1686 766.454M-95.1801 765.601L-94.5935 751.981M44.9991 796.086L9.79744 812.953M44.9991 796.086L46.0878 810.368M9.79744 812.953L-25.8027 830.009M9.79744 812.953L12.2133 829.451M-25.8027 830.009L-60.355 811.355M-25.8027 830.009L-22.0193 848.736M-60.355 811.355L-94.7959 792.874M-60.355 811.355L-57.0144 831.355M-94.7959 792.874L-93.8492 799.917M-94.7959 792.874L-94.9827 779.655M651.296 220.47L630.847 253.611M651.296 220.47L657.635 217.702L663.394 214.88M630.847 253.611L637.19 250.491M630.847 253.611L610.606 286.41M610.606 286.41L616.928 282.987M46.0878 810.368L12.2133 829.451M46.0878 810.368L45.8724 826.759M46.0878 810.368L45.5887 795.803L45.5251 784.826M12.2133 829.451L-22.0193 848.736M12.2133 829.451L12.6636 846.704M-22.0193 848.736L-57.0144 831.355M-22.0193 848.736L-20.8645 866.841M-57.0144 831.355L-55.6205 849.485M-57.0144 831.355L-91.9371 814.123M-59.9808 759.027L-55.2434 730.523M-59.9808 759.027L-25.7676 779.188M-59.9808 759.027L-94.0382 739.067M-55.2434 730.523L-47.5949 699.096M-55.2434 730.523L-20.5544 750.905M-55.2434 730.523L-89.7819 710.333M-47.5949 699.096L-39.3068 666.61M-47.5949 699.096L-12.4981 719.861M-47.5949 699.096L-82.5456 678.512M-39.3068 666.61L-23.7813 631.604M-39.3068 666.61L-4.00407 688.376M-39.3068 666.61L-74.4821 645.009M-23.7813 631.604L-7.2481 595.732M-23.7813 631.604L11.5776 654.387M-23.7813 631.604L-59.0309 608.971M-7.2481 595.732L13.3117 559.591M-7.2481 595.732L27.8503 619.992M-7.2481 595.732L-42.2643 571.603M13.3117 559.591L38.9716 523.552M13.3117 559.591L47.8619 585.52M13.3117 559.591L-21.1768 533.768M38.9716 523.552L65.4298 487.138M38.9716 523.552L72.736 551.155M38.9716 523.552L5.24805 496.032M65.4298 487.138L97.9287 453.56M65.4298 487.138L98.0675 516.618M65.4298 487.138L32.8174 457.717M97.9287 453.56L132.056 420.643M97.9287 453.56L129.227 484.766M97.9287 453.56L66.6455 422.393M132.056 420.643L167.134 388.54M132.056 420.643L161.899 453.444M132.056 420.643L102.225 387.867M167.134 388.54L205.764 361.517M167.134 388.54L195.444 422.788M167.134 388.54L138.838 354.3M205.764 361.517L244.452 334.853M205.764 361.517L179.106 326.059M205.764 361.517L232.443 396.973M244.452 334.853L283.224 310.364M244.452 334.853L219.233 298.463M244.452 334.853L269.699 371.235M283.224 310.364L322.037 290.75M283.224 310.364L259.371 273.249M283.224 310.364L307.116 347.468M322.037 290.75L360.4 271.608M322.037 290.75L299.566 253.104M322.037 290.75L344.557 328.385M360.4 271.608L397.43 254.631M360.4 271.608L338.893 233.721M360.4 271.608L381.965 309.485M397.43 254.631L431.892 242.111M397.43 254.631L376.782 216.641M397.43 254.631L418.15 292.614M431.892 242.111L465.53 230.02M431.892 242.111L412.103 204.147M431.892 242.111L451.762 280.074M465.53 230.02L497.387 219.125M465.53 230.02L446.191 192.257M465.53 230.02L484.957 267.776M497.387 219.125L478.37 181.64M497.387 219.125L516.496 256.603M644.795 182.07L626.211 149.072M644.795 182.07L663.394 214.88M48.1646 753.9L11.443 766.46M48.1646 753.9L53.2189 729.236M11.443 766.46L-25.7676 779.188M11.443 766.46L16.6105 739.99M-25.7676 779.188L-20.5544 750.905M-94.0382 739.067L-94.5935 751.981M-94.0382 739.067L-93.8196 737.179M-94.0382 739.067L-89.7819 710.333M45.8724 826.759L12.6636 846.704M45.8724 826.759L45.0809 840.345L12.2972 860.582L11.7931 870.516L-20.7837 891.014M12.6636 846.704L-20.8645 866.841M12.6636 846.704L12.2985 860.579L-20.7621 880.987M-20.8645 866.841L-55.6205 849.485M-20.8645 866.841L-20.7621 880.987M-55.6205 849.485L-90.3412 832.263M-55.6205 849.485L-55.0413 863.34M-90.3412 832.263L-89.3224 845.807M-90.3412 832.263L-90.9113 825.787L-90.9266 825.602L-91.9371 814.123M-91.9371 814.123L-93.8492 799.917M657.632 217.706L637.19 250.491M637.19 250.491L643.163 247.327M637.19 250.491L616.928 282.987M616.928 282.987L623.09 279.517L643.163 247.327M-20.7621 880.987L-55.0413 863.34M-20.7621 880.987L-20.7837 891.014M-55.0413 863.34L-89.3224 845.807M-55.0413 863.34L-54.5728 873.186M-89.3224 845.807L-89.2118 846.969M545.723 149.819L543.473 150.045L543.305 150.081M545.723 149.819L548.983 148.956L549.57 148.841L587.818 149.007M545.723 149.819L549.212 150.101L581.795 150.414M587.818 149.007L581.795 150.414M587.818 149.007L626.205 149.072M537.192 151.38L533.967 152.023M537.192 151.38L543.305 150.081M537.192 151.38L575.396 151.894M575.396 151.894L575.46 151.894L613.914 152.307M575.396 151.894L567.239 153.607M575.396 151.894L581.795 150.414M613.914 152.307L620.35 150.681M53.2189 729.236L16.6105 739.99M53.2189 729.236L60.6161 702.486M16.6105 739.99L-20.5544 750.905M16.6105 739.99L24.365 711.101M-20.5544 750.905L-12.4981 719.861M-89.7819 710.333L-82.5456 678.512M-89.7819 710.333L-86.5214 680.219M-20.8531 900.376L-54.1394 882.421M-20.8531 900.376L-20.7837 891.014M-20.8531 900.376L-23.181 901.834M-20.8531 900.376L43.1175 859.675L44.1305 850.167L45.0805 840.349M643.163 247.327L663.394 214.88M-54.1394 882.421L-87.5257 864.528L-88.4051 855.452M-54.1394 882.421L-54.5728 873.186M-88.4051 855.452L-54.5728 873.186M-88.4051 855.452L-89.2118 846.969M529.377 152.936L529.82 152.945L567.239 153.607M529.377 152.936L522.806 154.026M529.377 152.936L533.967 152.023M567.239 153.607L552.329 156.162M-54.5728 873.186L-20.7837 891.014M-89.2118 846.969L-88.7641 866.167M-23.181 901.834L-55.8927 883.986L-88.7641 866.167M-23.181 901.834L-25.6024 902.456L-57.6894 884.963L-90.0024 867.464M-88.7641 866.167L-90.0024 867.464M60.6161 702.486L24.365 711.101M60.6161 702.486L67.7066 676.458M24.365 711.101L-12.4981 719.861M24.365 711.101L32.1854 682.36M-12.4981 719.861L-4.00407 688.376M-82.5456 678.512L-74.4821 645.009M-82.5456 678.512L-79.8799 650.18M515.11 155.302L512.806 155.688M515.11 155.302L522.806 154.026M515.11 155.302L552.329 156.162M552.329 156.162L536.685 158.832M552.329 156.162L589.933 156.925L589.986 156.925M292.582 223.28L325.882 208.062M292.582 223.28L258.061 240.52M292.582 223.28L315.458 228.488M325.882 208.062L357.13 197.019M325.882 208.062L351.03 212.353M357.13 197.019L381.937 188.305M357.13 197.019L384.302 200.597M381.937 188.305L387.129 186.48M381.937 188.305L368.641 182.344M387.129 186.48L389.6 185.657M387.129 186.48L416.336 189.393M416.336 189.393L446.191 192.257M416.336 189.393L384.302 200.597M416.336 189.393L446.625 179.358M446.191 192.257L412.103 204.147M446.191 192.257L478.37 181.64M484.957 267.776L473.464 301.414M484.957 267.776L451.762 280.074M484.957 267.776L516.496 256.603M473.464 301.414L442.744 313.14M473.464 301.414L502.816 290.638M473.464 301.414L462.215 334.334M442.744 313.14L412.002 324.888M442.744 313.14L451.762 280.074M442.744 313.14L433.93 345.46M412.002 324.888L378.953 340.641M412.002 324.888L418.15 292.614M412.002 324.888L406 356.393M378.953 340.641L376.014 371.023M378.953 340.641L381.965 309.485M378.953 340.641L344.902 358.155M376.014 371.023L406 356.393M376.014 371.023L345.237 387.159M500.272 157.791L495.589 158.578M500.272 157.791L512.806 155.688M500.272 157.791L536.685 158.832M536.685 158.832L536.734 158.834L573.599 159.782M536.685 158.832L520.333 161.638M67.7066 676.458L32.1854 682.36M67.7066 676.458L81.0624 648.294M32.1854 682.36L-4.00407 688.376M32.1854 682.36L46.6734 651.309M-4.00407 688.376L11.5776 654.387M-74.4821 645.009L-74.3489 644.696L-59.0309 608.971M-74.4821 645.009L-72.5838 618.437M484.888 160.376L478.041 162.014M484.888 160.376L490.89 159.367M484.888 160.376L520.285 161.635L520.333 161.638M520.333 161.638L496.716 167.29M462.589 165.715L459.804 166.382M462.589 165.715L478.041 162.014M462.589 165.715L496.54 167.281L496.716 167.29M496.716 167.29L472.209 173.169M94.2215 620.54L61.4018 620.27M94.2215 620.54L110.165 593.055M94.2215 620.54L81.0624 648.294M61.4018 620.27L27.8503 619.992M61.4018 620.27L79.3802 589.331M61.4018 620.27L46.6734 651.309M27.8503 619.992L11.5776 654.387M27.8503 619.992L47.8619 585.52M-42.2643 571.603L-42.6032 548.88M-42.2643 571.603L-58.911 608.705L-59.0309 608.971M-42.2643 571.603L-42.1616 571.417L-21.1768 533.768M-42.6032 548.88L-43.039 526.689M-42.6032 548.88L-58.1742 584.338M-42.6032 548.88L-22.9268 512.959M-43.039 526.689L-57.4462 560.268M-43.039 526.689L-24.7312 492.64M439.549 171.234L436.069 172.071M439.549 171.234L459.804 166.382M439.549 171.234L472.209 173.169M472.209 173.169L446.625 179.358M436.069 172.071L450.865 142.956M436.069 172.071L433.684 172.645M450.865 142.956L466.252 112.536M450.865 142.956L433.99 135.861M450.865 142.956L468.214 150.178M466.252 112.536L491.893 107.438M466.252 112.536L448.993 105.555M466.252 112.536L483.977 119.65M491.893 107.438L517.089 102.344M491.893 107.438L472.557 99.5906M491.893 107.438L511.646 115.432M517.089 102.344L495.68 93.6569M517.089 102.344L538.881 111.195M495.589 158.578L510.995 129.945M495.589 158.578L490.89 159.367M510.995 129.945L542.317 127.235M510.995 129.945L497.613 124.869M510.995 129.945L524.227 134.97M542.317 127.235L573.264 124.464M542.317 127.235L527.175 121.439M542.317 127.235L557.151 132.912M573.264 124.464L556.325 117.969M573.264 124.464L589.749 130.781M415.528 177.015L407.265 179.768M415.528 177.015L422.344 175.374M415.528 177.015L446.625 179.358M446.625 179.358L478.37 181.64M581.795 150.414L620.35 150.681M620.35 150.681L626.211 149.072M81.0624 648.294L46.6734 651.309M-93.8492 799.917L-93.2584 828.866M-94.9827 779.655L-95.1686 766.454M-94.9827 779.655L-101.475 783.75M-95.1686 766.454L-107.529 774.24M-94.5935 751.981L-113.867 764.036M-59.0309 608.971L-58.1742 584.338M-21.1768 533.768L-21.0885 533.642L5.24805 496.032M-21.1768 533.768L-22.9268 512.959M5.24805 496.032L1.86184 477.15M5.24805 496.032L5.31904 495.932L32.8174 457.717M1.86184 477.15L27.6455 440.719M1.86184 477.15L-22.9268 512.959M1.86184 477.15L-1.53239 458.714M27.6455 440.719L59.5107 407.185M27.6455 440.719L32.8174 457.717M27.6455 440.719L22.5215 424.115M59.5107 407.185L92.9626 374.412M59.5107 407.185L66.6455 422.393M59.5107 407.185L52.4885 392.321M92.9626 374.412L127.309 342.546M92.9626 374.412L102.225 387.867M92.9626 374.412L83.8773 361.249M127.309 342.546L165.303 315.794M127.309 342.546L138.838 354.3M127.309 342.546L116.029 331.027M165.303 315.794L202.986 289.674M165.303 315.794L151.82 305.719M165.303 315.794L179.106 326.059M202.986 289.674L240.67 265.806M202.986 289.674L187.129 281.025M202.986 289.674L219.233 298.463M240.67 265.806L278.559 246.782M240.67 265.806L222.424 258.462M240.67 265.806L259.371 273.249M278.559 246.782L315.458 228.488M278.559 246.782L258.061 240.52M278.559 246.782L299.566 253.104M315.458 228.488L338.893 233.721M315.458 228.488L351.03 212.353M338.893 233.721L299.566 253.104M338.893 233.721L376.782 216.641M381.965 309.485L344.557 328.385M381.965 309.485L418.15 292.614M344.902 358.155L311.094 375.555M344.902 358.155L344.557 328.385M344.902 358.155L345.237 387.159M311.094 375.555L277.455 397.235M311.094 375.555L307.116 347.468M311.094 375.555L314.969 402.898M277.455 397.235L244.037 420.576M277.455 397.235L269.699 371.235M277.455 397.235L285.002 422.534M244.037 420.576L210.9 443.71M244.037 420.576L232.443 396.973M244.037 420.576L255.316 443.536M210.9 443.71L181.13 471.261M210.9 443.71L225.936 464.062M210.9 443.71L195.444 422.788M181.13 471.261L152.03 499.284M181.13 471.261L199.843 488.597M181.13 471.261L161.899 453.444M152.03 499.284L124.174 527.678M152.03 499.284L174.229 513.42M152.03 499.284L129.227 484.766M124.174 527.678L101.782 558.52M124.174 527.678L149.609 538.454M124.174 527.678L98.0675 516.618M101.782 558.52L79.3802 589.331M101.782 558.52L130.112 565.702M101.782 558.52L72.736 551.155M79.3802 589.331L110.165 593.055M79.3802 589.331L47.8619 585.52M46.6734 651.309L11.5776 654.387M-58.1742 584.338L-57.4462 560.268M-58.1742 584.338L-72.5838 618.437M-57.4462 560.268L-70.8356 592.454M-24.7312 492.64L-1.53239 458.714M-24.7312 492.64L-22.9268 512.959M-1.53239 458.714L22.5215 424.115M22.5215 424.115L52.4885 392.321M52.4885 392.321L83.8773 361.249M83.8773 361.249L116.029 331.027M116.029 331.027L151.82 305.719M151.82 305.719L187.129 281.025M187.129 281.025L222.424 258.462M222.424 258.462L258.061 240.52M351.03 212.353L384.302 200.597M351.03 212.353L376.782 216.641M384.302 200.597L412.103 204.147M516.496 256.603L502.816 290.638M462.215 334.334L433.93 345.46M433.93 345.46L406 356.393M345.237 387.159L314.969 402.898M314.969 402.898L285.002 422.534M285.002 422.534L255.316 443.536M255.316 443.536L225.936 464.062M225.936 464.062L199.843 488.597M199.843 488.597L174.229 513.42M174.229 513.42L149.609 538.454M149.609 538.454L130.112 565.702M130.112 565.702L110.165 593.055M-90.0024 867.464L-92.6096 865.39M-90.0024 867.464L-90.8139 830.234L-93.2584 828.866M-92.6096 865.39L-97.0343 858.939M-92.6096 865.39L-93.2584 828.866M-97.0343 858.939L-101.331 852.648M-97.0343 858.939L-97.4149 823.381M-101.331 852.648L-108.273 840.386M-101.331 852.648L-101.356 818.332M-108.273 840.386L-115.682 827.026M-108.273 840.386L-107.857 807.479M-115.682 827.026L-123.302 812.971M-115.682 827.026L-114.735 795.725M-123.302 812.971L-132.793 793.605M-123.302 812.971L-121.756 783.454M-132.793 793.605L-142.282 774.216M-132.793 793.605L-130.633 765.894M-142.282 774.216L-151.888 753.479M-142.282 774.216L-139.457 748.427M-151.888 753.479L-161.876 729.364M-151.888 753.479L-148.397 729.671M-161.876 729.364L-171.923 705.046M-161.876 729.364L-157.748 707.498M-171.923 705.046L-181.555 679.717M-171.923 705.046L-167.158 685.135M-181.555 679.717L-190.373 651.912M-181.555 679.717L-176.198 661.763M-190.373 651.912L-199.209 623.871M-190.373 651.912L-184.468 635.854M-199.209 623.871L-207.448 595.409M-199.209 623.871L-192.805 609.645M-207.448 595.409L-213.459 564.951M-207.448 595.409L-200.606 582.992M-213.459 564.951L-219.408 534.314M-213.459 564.951L-206.227 554.291M-219.408 534.314L-225.224 503.613M-219.408 534.314L-211.851 525.316M-225.224 503.613L-226.94 471.532M-225.224 503.613L-217.426 496.209M-226.94 471.532L-228.511 439.312M-226.94 471.532L-218.929 465.711M-228.511 439.312L-229.889 406.854M-228.511 439.312L-220.362 434.997M-229.889 406.854L-226.856 374.268M-229.889 406.854L-221.684 403.928M-226.856 374.268L-222.626 341.558M-226.856 374.268L-218.633 372.759M-222.626 341.558L-218.068 308.56L-208.998 276.496L-197.772 244.795L-186.065 212.923L-169.481 183.291L-150.605 154.635M-222.626 341.558L-214.46 341.411M-150.605 154.635L-131.182 126.08L-106.263 101.968L-80.1331 78.8352M-150.605 154.635L-144.031 160.92M-80.1331 78.8352L-52.8212 57.1721L-21.473 41.1507L9.96821 25.7698L43.046 14.8163L77.174 7.35131L110.995 0.678628L145.503 0.49034L179.278 0.718818M-80.1331 78.8352L-75.0384 87.3359M179.278 0.718818L212.54 3.75925M179.278 0.718818L176.88 12.3952M212.54 3.75925L245.249 9.40842M212.54 3.75925L208.695 15.4521M245.249 9.40842L277.132 15.1138M245.249 9.40842L239.888 21.0056M277.132 15.1138L307.788 24.1379L337.787 33.1084L366.722 42.7953M277.132 15.1138L270.077 26.4484M366.722 42.7953L394.677 53.2882M366.722 42.7953L354.117 52.7469M394.677 53.2882L422.208 63.6619M394.677 53.2882L380.08 62.5875M422.208 63.6619L447.279 73.8738M422.208 63.6619L405.49 72.1547M447.279 73.8738L472.259 84.1002M447.279 73.8738L428.447 81.574M472.259 84.1002L495.68 93.6569M472.259 84.1002L451.272 90.9168M495.68 93.6569L472.557 99.5906M538.881 111.195L556.325 117.969M538.881 111.195L511.646 115.432M556.325 117.969L527.175 121.439M589.749 130.781L600.296 134.783M589.749 130.781L557.193 132.908L557.151 132.912M600.296 134.783L611.176 138.909M600.296 134.783L600.207 134.789L566.231 136.367M611.176 138.909L619.935 142.537M611.176 138.909L575.818 140.036M619.935 142.537L622.969 144.75M619.935 142.537L583.487 143.269M622.969 144.75L625.91 146.995M622.969 144.75L585.661 145.149M625.91 146.995L644.317 179.389L662.714 211.558L663.394 214.88M625.91 146.995L626.211 149.072M625.91 146.995L587.945 147.149M-93.8196 737.179L-93.129 731.226M-93.8196 737.179L-120.276 753.51M-120.276 753.51L-121.756 783.454M-120.276 753.51L-113.867 764.036M-120.276 753.51L-128.526 737.729M-121.756 783.454L-114.735 795.725M-121.756 783.454L-130.633 765.894M47.8619 585.52L72.736 551.155M72.736 551.155L98.0675 516.618M98.0675 516.618L129.227 484.766M32.8174 457.717L66.6455 422.393M412.103 204.147L376.782 216.641M451.762 280.074L418.15 292.614M-72.5838 618.437L-70.8356 592.454M-72.5838 618.437L-79.8799 650.18M-70.8356 592.454L-72.8146 601.516L-73.0229 602.476M129.227 484.766L161.899 453.444M66.6455 422.393L102.225 387.867M161.899 453.444L195.444 422.788M102.225 387.867L138.838 354.3M195.444 422.788L232.443 396.973M138.838 354.3L179.106 326.059M512.806 155.688L524.227 134.97M524.227 134.97L524.321 134.965L557.151 132.912M524.227 134.97L531.9 137.867M557.151 132.912L566.231 136.367M-73.3875 601.419L-96.005 597.584M-73.3875 601.419L-73.0229 602.476M-73.3875 601.419L-81.3386 578.506M-96.005 597.584L-118.887 593.65M-96.005 597.584L-88.2532 620.424M-96.005 597.584L-103.652 575.248M-118.887 593.65L-148.767 606.586M-118.887 593.65L-111.545 615.581M-118.887 593.65L-126.23 571.9M-148.767 606.586L-178.501 619.414M-148.767 606.586L-141.235 629.543M-148.767 606.586L-156.359 583.535M-178.501 619.414L-184.468 635.854M-178.501 619.414L-170.794 643.392M-178.501 619.414L-186.321 595.067M-184.468 635.854L-176.198 661.763M-184.468 635.854L-192.805 609.645M-81.2076 640.302L-103.463 634.889M-81.2076 640.302L-80.752 638.179M-81.2076 640.302L-83.4369 650.709M-103.463 634.889L-132.972 649.893M-103.463 634.889L-95.0096 653.36M-103.463 634.889L-111.545 615.581M-132.972 649.893L-162.37 664.785M-132.972 649.893L-124.357 669.324M-132.972 649.893L-141.235 629.543M-162.37 664.785L-167.158 685.135M-162.37 664.785L-153.615 685.175M-162.37 664.785L-170.794 643.392M-167.158 685.135L-157.748 707.498M-167.158 685.135L-176.198 661.763M-113.867 764.036L-114.735 795.725M-113.867 764.036L-107.529 774.24M-114.735 795.725L-107.857 807.479M-81.3386 578.506L-103.652 575.248M-81.3386 578.506L-88.723 555.555M-103.652 575.248L-126.23 571.9M-103.652 575.248L-110.793 552.761M-126.23 571.9L-156.359 583.535M-126.23 571.9L-133.126 549.891M-156.359 583.535L-186.321 595.067M-156.359 583.535L-163.49 560.123M-186.321 595.067L-192.805 609.645M-186.321 595.067L-193.67 570.26M-192.805 609.645L-200.606 582.992M407.265 179.768L400.525 158.286M407.265 179.768L406.195 180.126M400.525 158.286L415.227 128.024M400.525 158.286L380.753 149.821M400.525 158.286L418.913 166.193M415.227 128.024L429.856 97.7908M415.227 128.024L395.017 119.574M415.227 128.024L433.99 135.861M429.856 97.7908L451.272 90.9168M429.856 97.7908L409.212 89.3642M429.856 97.7908L448.993 105.555M451.272 90.9168L428.447 81.574M451.272 90.9168L472.557 99.5906M-88.723 555.555L-110.793 552.761M-88.723 555.555L-93.8957 530.51M-110.793 552.761L-133.126 549.891M-110.793 552.761L-115.764 528.158M-133.126 549.891L-163.49 560.123M-133.126 549.891L-137.896 525.743M-163.49 560.123L-193.67 570.26M-163.49 560.123L-168.487 534.592M-193.67 570.26L-200.606 582.992M-193.67 570.26L-198.883 543.356M-200.606 582.992L-206.227 554.291M-93.8957 530.51L-115.764 528.158M-93.8957 530.51L-99.0534 506.052M-115.764 528.158L-137.896 525.743M-115.764 528.158L-120.783 503.863M-137.896 525.743L-168.487 534.592M-137.896 525.743L-142.772 501.617M-168.487 534.592L-198.883 543.356M-168.487 534.592L-173.579 508.885M-198.883 543.356L-206.227 554.291M-198.883 543.356L-204.174 516.079M-206.227 554.291L-211.851 525.316M-99.0534 506.052L-120.783 503.863M-99.0534 506.052L-104.271 482.061M-120.783 503.863L-142.772 501.617M-120.783 503.863L-125.898 479.843M-142.772 501.617L-173.579 508.885M-142.772 501.617L-147.784 477.57M-173.579 508.885L-204.174 516.079M-173.579 508.885L-178.753 483.12M-204.174 516.079L-211.851 525.316M-204.174 516.079L-209.497 488.607M-211.851 525.316L-217.426 496.209M-104.271 482.061L-125.898 479.843M-104.271 482.061L-105.473 456.684M-125.898 479.843L-147.784 477.57M-125.898 479.843L-127.007 454.425M-147.784 477.57L-178.753 483.12M-147.784 477.57L-148.795 452.116M-178.753 483.12L-209.497 488.607M-178.753 483.12L-179.904 455.945M-209.497 488.607L-217.426 496.209M-209.497 488.607L-210.78 459.728M-217.426 496.209L-218.929 465.711M-105.473 456.684L-127.007 454.425M-105.473 456.684L-106.819 431.675M-127.007 454.425L-148.795 452.116M-127.007 454.425L-128.264 429.177M-148.795 452.116L-179.904 455.945M-148.795 452.116L-149.966 426.634M-179.904 455.945L-210.78 459.728M-179.904 455.945L-181.138 428.609M-210.78 459.728L-218.929 465.711M-210.78 459.728L-212.071 430.559M-218.929 465.711L-220.362 434.997M-106.819 431.675L-128.264 429.177M-106.819 431.675L-108.353 407.123L-105.786 382.571M-128.264 429.177L-149.966 426.634M-128.264 429.177L-129.703 404.101M-149.966 426.634L-181.138 428.609M-149.966 426.634L-151.305 401.03M-181.138 428.609L-212.071 430.559M-181.138 428.609L-182.441 400.978M-212.071 430.559L-220.362 434.997M-212.071 430.559L-213.332 400.916M-220.362 434.997L-221.684 403.928M-88.8546 693.985L-107.451 704.979M-88.8546 693.985L-90.3592 707.352M-88.8546 693.985L-86.8586 676.229L-84.1962 656.377M-107.451 704.979L-136.666 722.173M-107.451 704.979L-99.2642 719.956M-107.451 704.979L-115.699 688.875M-136.666 722.173L-139.457 748.427M-136.666 722.173L-128.526 737.729M-136.666 722.173L-144.921 705.397M-139.457 748.427L-130.633 765.894M-139.457 748.427L-148.397 729.671M-108.364 407.123L-129.703 404.101M-129.703 404.101L-151.305 401.03M-129.703 404.101L-127.001 379.022M-151.305 401.03L-182.441 400.978M-151.305 401.03L-148.472 375.421M-182.441 400.978L-213.332 400.916M-182.441 400.978L-179.489 373.305M-213.332 400.916L-221.684 403.928M-213.332 400.916L-210.262 371.201M-221.684 403.928L-218.633 372.759M-105.786 382.571L-127.001 379.022M-105.786 382.571L-102.498 358.143M-127.001 379.022L-148.472 375.421M-127.001 379.022L-123.541 353.949M-148.472 375.421L-179.489 373.305M-148.472 375.421L-144.836 349.699M-179.489 373.305L-210.262 371.201M-179.489 373.305L-175.613 345.458M-210.262 371.201L-218.633 372.759M-210.262 371.201L-206.146 341.245M-218.633 372.759L-214.46 341.411M-102.498 358.143L-123.541 353.949M-102.498 358.143L-99.5548 334.07L-92.6937 311.079L-84.3794 288.531M-123.541 353.949L-144.836 349.699M-123.541 353.949L-120.324 328.886M-144.836 349.699L-175.613 345.458M-144.836 349.699L-141.344 323.64M-175.613 345.458L-206.146 341.245M-175.613 345.458L-171.708 317.107M-206.146 341.245L-214.46 341.411M-206.146 341.245L-201.832 310.625M-214.46 341.411L-210.023 309.587M299.566 253.104L259.371 273.249M344.557 328.385L307.116 347.468M-99.5737 334.065L-120.324 328.886M-120.324 328.886L-141.344 323.64M-120.324 328.886L-113.103 304.914M-141.344 323.64L-171.708 317.107M-141.344 323.64L-133.759 298.674M-171.708 317.107L-201.832 310.625M-171.708 317.107L-163.558 289.815M-201.832 310.625L-210.023 309.587M-201.832 310.625L-193.123 281.023M-210.023 309.587L-218.052 308.562M-210.023 309.587L-201.131 278.74M-92.7586 311.058L-113.103 304.914M-113.103 304.914L-133.759 298.674M-113.103 304.914L-104.328 281.318M-133.759 298.674L-163.558 289.815M-133.759 298.674L-124.522 274.016M-163.558 289.815L-193.123 281.023M-163.558 289.815L-153.572 262.808M-193.123 281.023L-201.131 278.74M-193.123 281.023L-182.401 251.688M-201.131 278.74L-208.982 276.5M-201.131 278.74L-190.154 248.207M-84.3794 288.531L-104.328 281.318M-84.3794 288.531L-76.5391 266.113M-104.328 281.318L-124.522 274.016M-104.328 281.318L-95.8275 257.558M-124.522 274.016L-153.572 262.808M-124.522 274.016L-115.353 248.902M-153.572 262.808L-182.401 251.688M-153.572 262.808L-143.413 235.271M-182.401 251.688L-190.154 248.207M-182.401 251.688L-171.262 221.745M-190.154 248.207L-197.744 244.805M-190.154 248.207L-178.728 217.29M-76.5391 266.113L-95.8275 257.558M-76.5391 266.113L-64.7232 245.967M-95.8275 257.558L-115.353 248.902M-95.8275 257.558L-83.2015 236.103M-115.353 248.902L-143.413 235.271M-115.353 248.902L-101.908 226.123M-143.413 235.271L-171.262 221.745M-143.413 235.271L-128.745 210.061M-171.262 221.745L-178.728 217.29M-171.262 221.745L-155.388 194.119M-178.728 217.29L-186.05 212.93M-178.728 217.29L-162.496 188.651M-64.7232 245.967L-83.2015 236.103M-64.7232 245.967L-51.5645 226.614M-83.2015 236.103L-101.908 226.123M-83.2015 236.103L-69.0595 215.42M-101.908 226.123L-128.745 210.061M-101.908 226.123L-86.7757 204.091M-128.745 210.061L-155.388 194.119M-128.745 210.061L-112.148 185.646M-155.388 194.119L-162.496 188.651M-155.388 194.119L-137.341 167.334M-162.496 188.651L-169.467 183.302M-162.496 188.651L-144.031 160.92M-51.5645 226.614L-69.0595 215.42M-51.5645 226.614L-38.8989 207.076M-69.0595 215.42L-86.7757 204.091M-69.0595 215.42L-55.1777 194.442M-86.7757 204.091L-112.148 185.646M-86.7757 204.091L-71.6642 181.653M-112.148 185.646L-137.341 167.334M-112.148 185.646L-95.3036 160.901M-137.341 167.334L-144.031 160.92M-137.341 167.334L-118.783 140.288M-144.031 160.92L-125.035 133.114M368.641 182.344L364.947 161.955M368.641 182.344L343.483 172.276M364.947 161.955L361.143 141.299M364.947 161.955L341.318 152.652M364.947 161.955L386.08 171.289M361.143 141.299L374.804 111.009M361.143 141.299L339.072 132.762M361.143 141.299L380.753 149.821M374.804 111.009L388.402 80.7624M374.804 111.009L352.139 102.369M374.804 111.009L395.017 119.574M388.402 80.7624L405.49 72.1547M388.402 80.7624L365.151 72.0308M388.402 80.7624L409.212 89.3642M405.49 72.1547L380.08 62.5875M405.49 72.1547L428.447 81.574M-38.8989 207.076L-55.1777 194.442M-38.8989 207.076L-21.904 191.723M-55.1777 194.442L-71.6642 181.653M-55.1777 194.442L-36.7533 177.747M-71.6642 181.653L-95.3036 160.901M-71.6642 181.653L-51.7964 163.598M-95.3036 160.901L-118.783 140.288M-95.3036 160.901L-73.4032 140.6M-118.783 140.288L-125.035 133.114M-118.783 140.288L-94.8744 117.756M-125.035 133.114L-131.174 126.089M-125.035 133.114L-100.618 109.782M-21.904 191.723L-36.7533 177.747M-21.904 191.723L-4.5934 176.607M-36.7533 177.747L-51.7964 163.598M-36.7533 177.747L-17.8483 161.372M-51.7964 163.598L-73.4032 140.6M-51.7964 163.598L-31.2767 145.946M-73.4032 140.6L-94.8744 117.756M-73.4032 140.6L-50.6258 120.898M-94.8744 117.756L-100.618 109.782M-94.8744 117.756L-69.8563 96.0071M-100.618 109.782L-106.248 101.99M-100.618 109.782L-75.0384 87.3359M-4.5934 176.607L-17.8483 161.372M-4.5934 176.607L13.0519 162.119M-17.8483 161.372L-31.2767 145.946M-17.8483 161.372L1.55116 145.739M-31.2767 145.946L-50.6258 120.898M-31.2767 145.946L-10.103 129.148M-50.6258 120.898L-69.8563 96.0071M-50.6258 120.898L-26.9749 102.261M-69.8563 96.0071L-75.0384 87.3359M-69.8563 96.0071L-43.75 75.5352M-75.0384 87.3359L-48.3251 66.2625M13.0519 162.119L1.55116 145.739M13.0519 162.119L33.6936 152.49M1.55116 145.739L-10.103 129.148M1.55116 145.739L24.1293 135.146M-10.103 129.148L-26.9749 102.261M-10.103 129.148L14.436 117.577M-26.9749 102.261L-43.75 75.5352M-26.9749 102.261L0.306668 89.0569M-43.75 75.5352L-48.3251 66.2625M-43.75 75.5352L-13.7451 60.6977M-48.3251 66.2625L-52.8169 57.1829M-48.3251 66.2625L-17.6424 50.8276M33.6936 152.49L24.1293 135.146M33.6936 152.49L54.3293 142.178M24.1293 135.146L14.436 117.577M24.1293 135.146L46.6135 124.115M14.436 117.577L0.306668 89.0569M14.436 117.577L38.7908 105.815M0.306668 89.0569L-13.7451 60.6977M0.306668 89.0569L27.4313 75.9965M-13.7451 60.6977L-17.6424 50.8276M-13.7451 60.6977L16.128 46.3397M-17.6424 50.8276L-21.4595 41.1854M-17.6424 50.8276L13.0227 35.9539M343.483 172.276L341.318 152.652M343.483 172.276L319.23 162.531M341.318 152.652L339.072 132.762M341.318 152.652L318.146 143.4M339.072 132.762L352.139 102.369M339.072 132.762L317.005 124.006M352.139 102.369L365.151 72.0308M352.139 102.369L329.139 93.403M365.151 72.0308L380.08 62.5875M365.151 72.0308L341.218 62.8654L316.233 54.3551M380.08 62.5875L354.117 52.7469M259.371 273.249L219.233 298.463M307.116 347.468L269.699 371.235M54.3293 142.178L46.6135 124.115M54.3293 142.178L76.0636 135.251M46.6135 124.115L38.7908 105.815M46.6135 124.115L70.2588 116.668M38.7908 105.815L27.4313 75.9965M38.7908 105.815L64.3743 97.8416M27.4313 75.9965L16.128 46.3397M27.4313 75.9965L55.9193 66.9916M16.128 46.3397L13.0227 35.9539M16.128 46.3397L47.5064 36.3044M13.0227 35.9539L9.97635 25.796M13.0227 35.9539L45.2569 25.454M76.0636 135.251L70.2588 116.668M76.0636 135.251L98.797 130.636M70.2588 116.668L64.3743 97.8416M70.2588 116.668L94.8068 111.755M64.3743 97.8416L55.9193 66.9916M64.3743 97.8416L90.7599 92.6212M55.9193 66.9916L47.5064 36.3044M55.9193 66.9916L85.2232 61.0459M47.5064 36.3044L45.2569 25.454M47.5064 36.3044L79.7127 29.6248M45.2569 25.454L43.0509 14.8396M45.2569 25.454L78.4346 18.3787M98.797 130.636L94.8068 111.755M98.797 130.636L121.962 125.645M94.8068 111.755L90.7599 92.6212M94.8068 111.755L119.433 106.658M90.7599 92.6212L85.2232 61.0459M90.7599 92.6212L116.865 87.4152M85.2232 61.0459L79.7127 29.6248M85.2232 61.0459L114.058 55.4115M79.7127 29.6248L78.4346 18.3787M79.7127 29.6248L111.262 23.5578M78.4346 18.3787L77.1799 7.39339M78.4346 18.3787L111.131 12.0055M-80.752 638.179L-88.2532 620.424M-80.752 638.179L-77.4261 622.647M-88.2532 620.424L-77.4261 622.647M-88.2532 620.424L-111.545 615.581M119.433 106.658L144.556 107.318M119.433 106.658L121.962 125.645M119.433 106.658L116.865 87.4152M144.556 107.318L169.918 107.622M144.556 107.318L145.608 126.249M144.556 107.318L143.484 88.1305M169.918 107.622L195.06 110.223M169.918 107.622L170.097 126.437M169.918 107.622L169.73 88.5511M195.06 110.223L220.08 114.984M195.06 110.223L194.553 128.876M195.06 110.223L195.565 91.314M220.08 114.984L245.483 119.575M220.08 114.984L219.113 133.481M220.08 114.984L221.046 96.2326M245.483 119.575L269.679 127.328M245.483 119.575L244.681 138.066M245.483 119.575L246.276 100.825M269.679 127.328L294.26 134.99M269.679 127.328L269.052 145.826M269.679 127.328L270.286 108.573M294.26 134.99L318.146 143.4M294.26 134.99L294.392 153.742M294.26 134.99L294.092 115.975M318.146 143.4L319.23 162.531M318.146 143.4L317.005 124.006M386.08 171.289L406.195 180.126M386.08 171.289L389.6 185.657M386.08 171.289L380.753 149.821M406.195 180.126L389.6 185.657M319.23 162.531L294.392 153.742M317.005 124.006L329.139 93.403M317.005 124.006L294.092 115.975M329.139 93.403L341.217 62.8681L354.117 52.7469M329.139 93.403L305.187 85.1281M354.117 52.7469L327.136 43.6384M121.962 125.645L145.608 126.249M116.865 87.4152L114.058 55.4115M116.865 87.4152L143.484 88.1305M114.058 55.4115L111.262 23.5578M114.058 55.4115L143.461 55.9265M111.262 23.5578L111.131 12.0055M111.262 23.5578L143.432 23.8641M111.131 12.0055L110.995 0.699831M111.131 12.0055L144.483 12.0616M145.608 126.249L170.097 126.437M143.484 88.1305L143.461 55.9265M143.484 88.1305L169.73 88.5511M143.461 55.9265L143.432 23.8641M143.461 55.9265L172.083 56.3608M143.432 23.8641L144.483 12.0616M143.432 23.8641L174.422 24.3041M144.483 12.0616L145.5 0.520766M144.483 12.0616L176.88 12.3952M170.097 126.437L194.553 128.876M169.73 88.5511L172.083 56.3608M169.73 88.5511L195.565 91.314M172.083 56.3608L174.422 24.3041M172.083 56.3608L200.173 59.2831M174.422 24.3041L176.88 12.3952M174.422 24.3041L204.756 27.3736M176.88 12.3952L208.695 15.4521M294.392 153.742L269.052 145.826M294.092 115.975L305.187 85.1281M294.092 115.975L270.286 108.573M305.187 85.1281L316.233 54.3551M305.187 85.1281L280.195 77.4448M316.233 54.3551L327.136 43.6384M316.233 54.3551L290.06 46.403M327.136 43.6384L337.782 33.1123M327.136 43.6384L299.028 35.1697M194.553 128.876L219.113 133.481M195.565 91.314L200.173 59.2831M195.565 91.314L221.046 96.2326M200.173 59.2831L204.756 27.3736M200.173 59.2831L227.738 64.4745M204.756 27.3736L208.695 15.4521M204.756 27.3736L234.397 32.828M208.695 15.4521L239.888 21.0056M522.806 154.026L531.9 137.867M531.9 137.867L540.266 141.074M531.9 137.867L566.184 136.369L566.231 136.367M566.231 136.367L575.818 140.036M219.113 133.481L244.681 138.066M221.046 96.2326L227.738 64.4745M221.046 96.2326L246.276 100.825M227.738 64.4745L234.397 32.828M227.738 64.4745L254.583 69.3627M234.397 32.828L239.888 21.0056M234.397 32.828L262.85 37.9996M239.888 21.0056L270.077 26.4484M244.681 138.066L269.052 145.826M246.276 100.825L254.583 69.3627M246.276 100.825L270.286 108.573M254.583 69.3627L262.85 37.9996M254.583 69.3627L280.195 77.4448M262.85 37.9996L270.077 26.4484M262.85 37.9996L290.06 46.403M270.077 26.4484L299.028 35.1697M270.286 108.573L280.195 77.4448M280.195 77.4448L290.06 46.403M290.06 46.403L299.028 35.1697M299.028 35.1697L307.784 24.1436M459.804 166.382L468.214 150.178M468.214 150.178L483.977 119.65M468.214 150.178L481.459 155.556M483.977 119.65L511.646 115.432M483.977 119.65L497.613 124.869M511.646 115.432L527.175 121.439M219.233 298.463L179.106 326.059M269.699 371.235L232.443 396.973M380.753 149.821L395.017 119.574M395.017 119.574L409.212 89.3642M409.212 89.3642L428.447 81.574M-107.529 774.24L-107.857 807.479M-107.529 774.24L-101.475 783.75M-107.857 807.479L-101.356 818.332M-93.129 731.226L-99.2642 719.956M-93.129 731.226L-93.1239 731.19L-90.3592 707.352M-99.2642 719.956L-91.2539 715.067M-99.2642 719.956L-128.526 737.729M-115.699 688.875L-124.357 669.324M-115.699 688.875L-86.4044 672.243M-115.699 688.875L-144.921 705.397M-124.357 669.324L-95.0096 653.36M-124.357 669.324L-153.615 685.175M-141.235 629.543L-111.545 615.581M-141.235 629.543L-170.794 643.392M433.99 135.861L418.913 166.193M433.99 135.861L448.993 105.555M481.459 155.556L478.041 162.014M481.459 155.556L497.613 124.869M481.459 155.556L490.89 159.367M533.967 152.023L540.266 141.074M540.266 141.074L546.926 143.907M540.266 141.074L575.818 140.036M575.818 140.036L583.487 143.269M-84.1962 656.377L-95.0096 653.36M-84.1962 656.377L-83.4369 650.709M-95.0096 653.36L-86.4044 672.243M-153.615 685.175L-157.748 707.498M-153.615 685.175L-144.921 705.397M-157.748 707.498L-148.397 729.671M-77.4261 622.647L-73.0229 602.476M-170.794 643.392L-176.198 661.763M422.344 175.374L418.913 166.193M422.344 175.374L433.684 172.645M418.913 166.193L433.684 172.645M448.993 105.555L472.557 99.5906M-128.526 737.729L-130.633 765.894M-101.475 783.75L-97.8937 787.636L-97.4149 823.381M-101.475 783.75L-101.356 818.332M-101.356 818.332L-97.4149 823.381M497.613 124.869L527.175 121.439M543.305 150.081L543.326 150.044L546.926 143.907M546.926 143.907L548.321 145.449M546.926 143.907L583.487 143.269M583.487 143.269L585.661 145.149M548.321 145.449L550.035 147.203L587.945 147.149M548.321 145.449L585.661 145.149M587.945 147.149L585.661 145.149M-86.34 672.365L-86.4044 672.243M-86.4044 672.243L-86.3274 672.267M-144.921 705.397L-148.397 729.671M-97.4149 823.381L-93.2584 828.866M-90.3592 707.352L-86.5214 680.219M-83.4369 650.709L-85.7111 672.465L-85.558 674.101M-86.5214 680.219L-86.1221 676.406L-85.558 674.101M-86.5214 680.219L-85.7285 676.638L-85.558 674.101M-85.558 674.101L-84.5217 671.173L-79.8799 650.18M-79.8799 650.18L-77.4016 622.65" stroke="url(#paint0_linear_456_676)" stroke-width="0.5" stroke-linecap="round" stroke-linejoin="round"/>
<defs>
<linearGradient id="paint0_linear_456_676" x1="491.507" y1="54.7649" x2="-299.075" y2="774.988" gradientUnits="userSpaceOnUse">
<stop stop-color="#49FFA4"/>
<stop offset="1" stop-color="#49FFA4" stop-opacity="0"/>
</linearGradient>
</defs>
</svg>
